<svg width="32" height="32" viewBox="0 0 32 32" fill="none" xmlns="http://www.w3.org/2000/svg">
<path d="M17.3688 2.66766C18.3418 2.66392 19.3148 2.6737 20.2875 2.69699L20.5462 2.70632C20.8448 2.71699 21.1395 2.73032 21.4955 2.74632C22.9142 2.81299 23.8822 3.03699 24.7315 3.36632C25.6115 3.70499 26.3528 4.16366 27.0942 4.90499C27.772 5.57113 28.2966 6.37692 28.6315 7.26632C28.9608 8.11566 29.1848 9.08499 29.2515 10.5037C29.2675 10.8583 29.2808 11.1543 29.2915 11.453L29.2995 11.7117C29.3232 12.6839 29.3334 13.6565 29.3302 14.629L29.3315 15.6237V17.3703C29.3348 18.3433 29.3246 19.3163 29.3008 20.289L29.2928 20.5477C29.2822 20.8463 29.2688 21.141 29.2528 21.497C29.1862 22.9157 28.9595 23.8837 28.6315 24.733C28.2977 25.6233 27.773 26.4298 27.0942 27.0957C26.4275 27.7734 25.6212 28.298 24.7315 28.633C23.8822 28.9623 22.9142 29.1863 21.4955 29.253C21.1395 29.269 20.8448 29.2823 20.5462 29.293L20.2875 29.301C19.3148 29.3247 18.3418 29.3349 17.3688 29.3317L16.3742 29.333H14.6288C13.6558 29.3363 12.6829 29.3261 11.7102 29.3023L11.4515 29.2943C11.135 29.2828 10.8185 29.2695 10.5022 29.2543C9.0835 29.1877 8.1155 28.961 7.26483 28.633C6.37508 28.2988 5.56915 27.7741 4.9035 27.0957C4.22489 26.4294 3.6998 25.6231 3.36483 24.733C3.0355 23.8837 2.8115 22.9157 2.74483 21.497C2.72998 21.1806 2.71665 20.8642 2.70483 20.5477L2.69817 20.289C2.67358 19.3163 2.66247 18.3433 2.66483 17.3703V14.629C2.66111 13.6565 2.67089 12.6839 2.69417 11.7117L2.7035 11.453C2.71417 11.1543 2.7275 10.8583 2.7435 10.5037C2.81017 9.08366 3.03417 8.11699 3.3635 7.26632C3.69866 6.37648 4.22478 5.57092 4.90483 4.90632C5.57002 4.22733 6.37545 3.70175 7.26483 3.36632C8.1155 3.03699 9.08216 2.81299 10.5022 2.74632L11.4515 2.70632L11.7102 2.69966C12.6824 2.67509 13.6549 2.66397 14.6275 2.66632L17.3688 2.66766ZM15.9982 9.33432C15.1148 9.32183 14.2378 9.48502 13.4181 9.81441C12.5984 10.1438 11.8524 10.6328 11.2233 11.2531C10.5942 11.8733 10.0947 12.6124 9.75375 13.4273C9.4128 14.2423 9.23722 15.1169 9.23722 16.0003C9.23722 16.8837 9.4128 17.7583 9.75375 18.5733C10.0947 19.3883 10.5942 20.1273 11.2233 20.7476C11.8524 21.3678 12.5984 21.8568 13.4181 22.1862C14.2378 22.5156 15.1148 22.6788 15.9982 22.6663C17.7663 22.6663 19.462 21.9639 20.7122 20.7137C21.9625 19.4635 22.6648 17.7678 22.6648 15.9997C22.6648 14.2315 21.9625 12.5359 20.7122 11.2856C19.462 10.0354 17.7663 9.33432 15.9982 9.33432ZM15.9982 12.001C16.5295 11.9912 17.0575 12.0874 17.5512 12.2839C18.045 12.4805 18.4946 12.7734 18.8739 13.1457C19.2531 13.518 19.5544 13.9621 19.7601 14.4521C19.9658 14.9421 20.0718 15.4682 20.0719 15.9996C20.0719 16.5311 19.9661 17.0572 19.7606 17.5473C19.5551 18.0374 19.254 18.4816 18.8748 18.854C18.4957 19.2264 18.0462 19.5195 17.5525 19.7162C17.0588 19.9129 16.5308 20.0093 15.9995 19.9997C14.9386 19.9997 13.9212 19.5782 13.1711 18.8281C12.4209 18.0779 11.9995 17.0605 11.9995 15.9997C11.9995 14.9388 12.4209 13.9214 13.1711 13.1712C13.9212 12.4211 14.9386 11.9997 15.9995 11.9997L15.9982 12.001ZM22.9982 7.33432C22.568 7.35154 22.1612 7.53452 21.863 7.84495C21.5647 8.15538 21.3982 8.56917 21.3982 8.99966C21.3982 9.43014 21.5647 9.84393 21.863 10.1544C22.1612 10.4648 22.568 10.6478 22.9982 10.665C23.4402 10.665 23.8641 10.4894 24.1767 10.1768C24.4892 9.86427 24.6648 9.44035 24.6648 8.99832C24.6648 8.55629 24.4892 8.13237 24.1767 7.81981C23.8641 7.50725 23.4402 7.33166 22.9982 7.33166V7.33432Z" fill="#0D0D0D"/>
</svg>
