<svg width="94" height="64" viewBox="0 0 94 64" fill="none" xmlns="http://www.w3.org/2000/svg">
<g clip-path="url(#clip0_793_3727)">
<path d="M28.7937 24.8561V0H38.2296V49.8477H28.7937V40.0757C27.7178 43.2613 26.0203 45.8019 23.6933 47.6894C21.3662 49.5769 18.6406 50.5167 15.5166 50.5167C11.0855 50.5167 7.39568 48.7884 4.439 45.332C1.48232 41.8835 0 37.5908 0 32.4699C0 27.3489 1.48232 23.0642 4.439 19.5998C7.39568 16.1434 11.0855 14.4151 15.5166 14.4151C18.6406 14.4151 21.3662 15.3549 23.6933 17.2424C26.0203 19.1299 27.7258 21.6625 28.7937 24.8561ZM18.9355 42.2339C21.8204 42.2339 24.1874 41.3101 26.0283 39.4704C27.8693 37.6307 28.7858 35.2972 28.7858 32.4619C28.7858 29.6267 27.8693 27.3649 26.0283 25.5251C24.1874 23.6854 21.8204 22.7616 18.9355 22.7616C16.4171 22.7616 14.2654 23.6934 12.4722 25.557C10.6791 27.4206 9.77855 29.7222 9.77855 32.4619C9.77855 35.2016 10.6632 37.5749 12.4324 39.4306C14.2016 41.2942 16.3693 42.226 18.9355 42.226V42.2339Z" fill="#0D0D0D"/>
<path d="M42.0078 5.45545C42.0078 3.92633 42.5657 2.63614 43.6814 1.58487C44.7971 0.533599 46.1519 0 47.7379 0C49.3238 0 50.6069 0.525635 51.7226 1.58487C52.8383 2.6441 53.3962 3.9343 53.3962 5.45545C53.3962 6.9766 52.8383 8.21901 51.7226 9.29418C50.6069 10.3693 49.276 10.9109 47.7379 10.9109C46.1998 10.9109 44.8051 10.3693 43.6814 9.29418C42.5657 8.21901 42.0078 6.93678 42.0078 5.45545ZM52.4239 49.8477H42.9881V15.0921H52.4239V49.8556V49.8477Z" fill="#0D0D0D"/>
<path d="M84.5593 24.5851V15.0839H93.9952V45.937C93.9952 51.058 92.1543 55.3427 88.4724 58.8071C84.7905 62.2636 80.2 63.9918 74.7011 63.9918C70.9714 63.9918 67.6401 63.1396 64.7074 61.4353C61.7746 59.731 59.5113 57.4612 57.9254 54.6339L66.381 50.3253C68.198 53.9171 70.9714 55.717 74.7011 55.717C77.4506 55.717 79.7777 54.7932 81.6903 52.9535C83.603 51.1137 84.5593 48.7802 84.5593 45.945V39.279C83.4835 42.3771 81.786 44.8459 79.4589 46.6857C77.1318 48.5254 74.4062 49.4492 71.2822 49.4492C66.8512 49.4492 63.1613 47.7768 60.2046 44.4318C57.2479 41.0869 55.7656 36.9216 55.7656 31.936C55.7656 26.9505 57.2479 22.7852 60.2046 19.4403C63.1613 16.0953 66.8512 14.4229 71.2822 14.4229C74.4062 14.4229 77.1318 15.3467 79.4589 17.1864C81.786 19.0261 83.4914 21.495 84.5593 24.5931V24.5851ZM74.988 41.1585C77.7375 41.1585 80.0167 40.2825 81.8338 38.5304C83.6508 36.7783 84.5593 34.5801 84.5593 31.9281C84.5593 29.276 83.6508 27.0859 81.8338 25.3576C80.0167 23.6294 77.7295 22.7613 74.988 22.7613C72.2465 22.7613 70.0947 23.6374 68.2777 25.3895C66.4607 27.1416 65.5521 29.3238 65.5521 31.9281C65.5521 34.5324 66.4607 36.7225 68.2777 38.4985C70.0947 40.2745 72.3342 41.1585 74.988 41.1585Z" fill="#0D0D0D"/>
<path d="M1.92188 58.0742H2.76664L4.25693 61.8492L5.69144 58.0742H6.54417V62.5341H5.9624V58.8149L4.51196 62.5341H3.978L2.50365 58.8149V62.5341H1.92188V58.0742Z" fill="#0D0D0D"/>
<path d="M9.51239 57.9707C10.2137 57.9707 10.7556 58.1857 11.1461 58.6078C11.5366 59.0299 11.7279 59.5874 11.7279 60.2723C11.7279 60.9573 11.5366 61.5307 11.1461 61.9767C10.7636 62.4227 10.2137 62.6457 9.51239 62.6457C9.15376 62.6457 8.82701 62.582 8.54808 62.4545C8.26118 62.3271 8.03007 62.1598 7.84677 61.9369C7.66347 61.7139 7.52799 61.467 7.44033 61.1803C7.34469 60.8935 7.29688 60.5909 7.29688 60.2564C7.29688 59.5556 7.49611 59.006 7.89459 58.5919C8.29306 58.1778 8.82702 57.9707 9.50442 57.9707H9.51239ZM9.51239 58.4804C8.99437 58.4804 8.60387 58.6556 8.32494 59.006C8.04601 59.3565 7.91053 59.7865 7.91053 60.2962C7.91053 60.8537 8.05398 61.2997 8.34885 61.6342C8.64372 61.9687 9.03422 62.128 9.52036 62.128C10.0065 62.128 10.389 61.9607 10.6839 61.6263C10.9708 61.2918 11.1222 60.8458 11.1222 60.2962C11.1222 59.7467 10.9788 59.3087 10.6839 58.9742C10.389 58.6477 9.99853 58.4804 9.51239 58.4804Z" fill="#0D0D0D"/>
<path d="M12.5078 58.0742H14.4842C14.9066 58.0742 15.2573 58.1618 15.5362 58.345C15.8151 58.5282 15.9586 58.8069 15.9586 59.1892C15.9586 59.4122 15.8948 59.6113 15.7753 59.7785C15.6478 59.9538 15.4884 60.0732 15.2812 60.1449C15.5681 60.2086 15.7833 60.336 15.9427 60.5351C16.102 60.7343 16.1738 60.9811 16.1738 61.2758C16.1738 62.1121 15.592 62.5341 14.4205 62.5341H12.5158V58.0742H12.5078ZM13.1055 58.576V59.9856H14.2053C14.3328 59.9856 14.4364 59.9856 14.5241 59.9777C14.6118 59.9777 14.7154 59.9538 14.8269 59.9299C14.9385 59.906 15.0262 59.8662 15.0979 59.8184C15.1616 59.7706 15.2254 59.6989 15.2732 59.6113C15.321 59.5157 15.3449 59.4122 15.3449 59.2768C15.3449 59.1414 15.321 59.0379 15.2812 58.9503C15.2413 58.8627 15.1856 58.791 15.1218 58.7432C15.058 58.6954 14.9784 58.6556 14.8747 58.6317C14.7711 58.6078 14.6755 58.5919 14.5878 58.5839C14.5002 58.5839 14.3966 58.576 14.2611 58.576H13.1055ZM13.1055 60.4475V62.0404H14.3249C14.4763 62.0404 14.5958 62.0404 14.6915 62.0324C14.7871 62.0324 14.8907 62.0085 15.0102 61.9767C15.1298 61.9448 15.2254 61.905 15.2892 61.8492C15.3609 61.7935 15.4167 61.7138 15.4645 61.6023C15.5123 61.4988 15.5362 61.3714 15.5362 61.2201C15.5362 61.0926 15.5203 60.9891 15.4884 60.8935C15.4565 60.798 15.4007 60.7263 15.329 60.6705C15.2573 60.6148 15.1856 60.575 15.1138 60.5351C15.0501 60.5033 14.9465 60.4794 14.8269 60.4635C14.6994 60.4475 14.6038 60.4475 14.5321 60.4396C14.4603 60.4396 14.3567 60.4396 14.2133 60.4396H13.0976L13.1055 60.4475Z" fill="#0D0D0D"/>
<path d="M17.5902 58.0742V62.5341H16.9766V58.0742H17.5902Z" fill="#0D0D0D"/>
<path d="M21.7089 62.0166V62.5263H18.6406V58.0664H19.2543V62.0087H21.7089V62.0166Z" fill="#0D0D0D"/>
<path d="M24.1999 57.9707C24.9012 57.9707 25.4431 58.1857 25.8336 58.6078C26.2241 59.0299 26.4154 59.5874 26.4154 60.2723C26.4154 60.9573 26.2241 61.5307 25.8336 61.9767C25.4511 62.4227 24.9012 62.6457 24.1999 62.6457C23.8413 62.6457 23.5145 62.582 23.2356 62.4545C22.9487 62.3271 22.7176 62.1598 22.5343 61.9369C22.351 61.7139 22.2155 61.467 22.1278 61.1803C22.0322 60.8935 21.9844 60.5909 21.9844 60.2564C21.9844 59.5556 22.1836 59.006 22.5821 58.5919C22.9806 58.1778 23.5145 57.9707 24.1919 57.9707H24.1999ZM24.1999 58.4804C23.6819 58.4804 23.2914 58.6556 23.0124 59.006C22.7335 59.3565 22.598 59.7865 22.598 60.2962C22.598 60.8537 22.7415 61.2997 23.0363 61.6342C23.3312 61.9687 23.7217 62.128 24.2079 62.128C24.694 62.128 25.0765 61.9607 25.3714 61.6263C25.6583 61.2918 25.8097 60.8458 25.8097 60.2962C25.8097 59.7467 25.6663 59.3087 25.3714 58.9742C25.0765 58.6477 24.686 58.4804 24.1999 58.4804Z" fill="#0D0D0D"/>
<path d="M31.2007 60.1688V62.5262H30.8102L30.6508 61.9687C30.2762 62.4147 29.7821 62.6297 29.1605 62.6297C28.499 62.6297 27.9731 62.4147 27.5666 61.9926C27.1602 61.5705 26.9609 61.013 26.9609 60.3281C26.9609 59.6432 27.1602 59.0857 27.5586 58.6397C27.9571 58.1937 28.507 57.9707 29.2083 57.9707C29.5271 57.9707 29.8299 58.0264 30.1009 58.13C30.3798 58.2335 30.611 58.4008 30.8102 58.6317C31.0015 58.8627 31.113 59.1255 31.1449 59.4361H30.5472C30.4994 59.1414 30.3559 58.9105 30.1089 58.7353C29.8618 58.5601 29.567 58.4724 29.2083 58.4724C28.7063 58.4724 28.3078 58.6397 28.0129 58.9662C27.718 59.2928 27.5746 59.7467 27.5746 60.3122C27.5746 60.8776 27.718 61.3157 28.0129 61.6422C28.3078 61.9687 28.7063 62.136 29.2004 62.136C29.6706 62.136 30.0212 62.0006 30.2683 61.7298C30.5153 61.459 30.6428 61.0927 30.6508 60.6467H29.1685V60.1608H31.1927L31.2007 60.1688Z" fill="#0D0D0D"/>
<path d="M32.1173 58.0744H34.1496C35.1856 58.0744 35.7036 58.4885 35.7036 59.3088C35.7036 59.5716 35.6319 59.7946 35.4884 59.9937C35.345 60.1928 35.1537 60.3282 34.9146 60.3919C35.074 60.4238 35.1936 60.4716 35.2892 60.5353C35.3848 60.599 35.4566 60.6866 35.4964 60.7981C35.5363 60.9096 35.5681 61.0131 35.5841 61.1007C35.6 61.1884 35.608 61.3158 35.6159 61.491C35.6159 61.5069 35.6159 61.5467 35.6159 61.6105C35.6159 61.6742 35.6159 61.722 35.6159 61.7458C35.6159 61.7697 35.6159 61.8096 35.6239 61.8653C35.6239 61.9211 35.6399 61.9688 35.6399 62.0007C35.6399 62.0326 35.6478 62.0724 35.6558 62.1202C35.6638 62.1679 35.6717 62.2078 35.6877 62.2396C35.7036 62.2715 35.7195 62.3033 35.7355 62.3432C35.7514 62.383 35.7753 62.4148 35.7913 62.4467C35.8152 62.4786 35.8391 62.5024 35.863 62.5343H35.1617C35.1298 62.4945 35.1059 62.4387 35.09 62.375C35.074 62.3113 35.0581 62.2396 35.0501 62.152C35.0421 62.0644 35.0342 62.0007 35.0342 61.9449C35.0342 61.8892 35.0262 61.8175 35.0182 61.714C35.0182 61.6105 35.0182 61.5547 35.0182 61.5467C34.9943 61.1645 34.9146 60.9176 34.7712 60.7901C34.6277 60.6627 34.3488 60.599 33.9344 60.599H32.723V62.5263H32.1094V58.0664L32.1173 58.0744ZM32.731 58.5761V60.1371H33.8786C34.022 60.1371 34.1416 60.1371 34.2372 60.1212C34.3329 60.1052 34.4444 60.0973 34.556 60.0654C34.6755 60.0335 34.7712 59.9937 34.8349 59.938C34.9067 59.8822 34.9624 59.8026 35.0103 59.707C35.0581 59.6035 35.082 59.484 35.082 59.3407C35.082 59.038 34.9864 58.8389 34.8031 58.7274C34.6198 58.6159 34.3568 58.5681 34.03 58.5681H32.7151L32.731 58.5761Z" fill="#0D0D0D"/>
<path d="M38.5104 58.0742L40.3195 62.5341H39.6341L39.124 61.1723H37.1795L36.6535 62.5341H36L37.817 58.0742H38.5024H38.5104ZM38.9407 60.6944L38.1518 58.6317L37.3548 60.6944H38.9407Z" fill="#0D0D0D"/>
<path d="M40.7968 58.0742H42.7015C43.1717 58.0742 43.5462 58.1778 43.8252 58.3848C44.1041 58.5919 44.2396 58.9184 44.2396 59.3564C44.2396 60.2564 43.7136 60.7024 42.6616 60.7024H41.4104V62.5341H40.7968V58.0742ZM41.4104 58.5839V60.2086H42.5899C42.9166 60.2086 43.1717 60.1529 43.3629 60.0334C43.5542 59.9139 43.6419 59.6989 43.6419 59.3963C43.6419 59.229 43.61 59.0857 43.5542 58.9742C43.4984 58.8627 43.4107 58.7751 43.2992 58.7273C43.1876 58.6715 43.0681 58.6397 42.9485 58.6158C42.829 58.5999 42.6855 58.5839 42.5102 58.5839H41.4184H41.4104Z" fill="#0D0D0D"/>
<path d="M48.6503 58.0742V62.5341H48.0367V60.4475H45.598V62.5341H44.9844V58.0742H45.598V59.9299H48.0367V58.0742H48.6503Z" fill="#0D0D0D"/>
<path d="M53.3638 58.0742L51.5787 60.7104V62.5341H50.973V60.7104L49.1719 58.0742H49.9051L51.2918 60.1927L52.6625 58.0742H53.3638Z" fill="#0D0D0D"/>
</g>
<defs>
<clipPath id="clip0_793_3727">
<rect width="94" height="64" fill="white"/>
</clipPath>
</defs>
</svg>
